<?xml version="1.0" encoding="UTF-8"?>
<svg id="Capa_2" data-name="Capa 2" xmlns="http://www.w3.org/2000/svg" viewBox="0 0 1027.69 868.67">
  <defs>
    <style>
      .cls-1 {
        stroke: #fff;
        stroke-miterlimit: 10;
        stroke-width: 5px;
      }
    </style>
  </defs>
  <g id="Logo1">
    <g id="XS">
      <g>
        <polygon class="cls-1" points="400.8 524.05 251.28 745.36 336.96 745.36 495.21 524.12 419.68 418.44 662.47 79.22 861.52 79.22 706.13 306.71 753.67 373.06 988.7 28.84 1006.68 2.5 622.99 2.5 325.2 418.51 400.8 524.05"/>
        <polygon class="cls-1" points="707.47 440.61 630.23 337.83 773 126.24 690.46 126.24 537.46 340.22 613.81 441.88 376.47 789.37 154.28 789.37 325.27 550.47 277.95 484.49 4.86 866.1 416.92 866.1 707.18 441.05 707.47 440.61"/>
        <polygon class="cls-1" points="475.92 121.68 392.65 2.75 50.01 2.62 293.13 376.8 475.92 121.68"/>
        <polygon class="cls-1" points="752.68 487.74 569.88 742.86 654.13 866.17 1022.84 866.17 752.68 487.74"/>
      </g>
    </g>
  </g>
</svg>